<svg width="156" height="157" viewBox="0 0 156 157" fill="none" xmlns="http://www.w3.org/2000/svg">
<path d="M0.5 47.2397C0.5 47.5159 0.723858 47.7397 1 47.7397H8C8.27614 47.7397 8.5 47.5159 8.5 47.2397V43.5685C8.5 35.5204 15.6222 28.9247 24.5 28.9247H130.5C139.378 28.9247 146.5 35.5204 146.5 43.5685V47.2397C146.5 47.5159 146.724 47.7397 147 47.7397H154C154.276 47.7397 154.5 47.5159 154.5 47.2397V43.5685C154.5 31.3409 143.714 21.5 130.5 21.5H24.5C11.2864 21.5 0.5 31.3409 0.5 43.5685V47.2397ZM154.5 129.842C154.5 129.566 154.276 129.342 154 129.342H147C146.724 129.342 146.5 129.566 146.5 129.842V134.432C146.5 142.48 139.378 149.075 130.5 149.075H24.5C15.6222 149.075 8.5 142.48 8.5 134.432V129.842C8.5 129.566 8.27614 129.342 8 129.342H1C0.723858 129.342 0.5 129.566 0.5 129.842V134.432C0.5 146.659 11.2864 156.5 24.5 156.5H130.5C143.714 156.5 154.5 146.659 154.5 134.432V129.842Z" fill="white" stroke="white" stroke-linejoin="round"/>
<path d="M36.7715 113.885C36.7715 111.407 34.9658 109.728 32.3203 109.728H10.9463V65.4678C10.9463 62.1924 9.18262 60.2607 6.20117 60.2607C3.17773 60.2607 1.41406 62.1924 1.41406 65.4678V111.197C1.41406 115.9 3.68164 118 8.63672 118H32.3203C34.9658 118 36.7715 116.362 36.7715 113.885Z" fill="white"/>
<path d="M48.6133 118.42C51.5947 118.42 53.3584 116.488 53.3584 113.213V65.4678C53.3584 62.1924 51.5947 60.2607 48.6133 60.2607C45.5898 60.2607 43.8262 62.1924 43.8262 65.4678V113.213C43.8262 116.488 45.6318 118.42 48.6133 118.42Z" fill="white"/>
<path d="M85.9023 106.83H85.4404L71.709 64.8379C70.6592 61.5625 69.1475 60.0928 66.6279 60.0928C63.8984 60.0928 61.8408 61.8984 61.8408 64.46C61.8408 65.4258 62.1348 66.8535 62.6387 68.3652L78.0918 111.869C79.6455 116.446 81.8291 118.42 85.6084 118.42C89.3457 118.42 91.4453 116.446 92.999 111.869L108.494 68.3652C108.914 67.0635 109.292 65.3838 109.292 64.418C109.292 61.8564 107.234 60.0928 104.547 60.0928C102.027 60.0928 100.516 61.4785 99.5078 64.8379L85.9023 106.83Z" fill="white"/>
<path d="M118.656 111.197C118.656 115.9 120.924 118 125.879 118H150.696C153.384 118 155.105 116.446 155.105 114.011C155.105 111.533 153.384 109.979 150.696 109.979H128.146V92.7207H149.479C151.956 92.7207 153.594 91.251 153.594 88.8994C153.594 86.5479 151.956 85.0361 149.479 85.0361H128.146V68.7012H150.78C153.384 68.7012 155.105 67.1475 155.105 64.7119C155.105 62.2764 153.384 60.6807 150.78 60.6807H125.879C120.924 60.6807 118.656 62.8223 118.656 67.4834V111.197Z" fill="white"/>
<line x1="4.5" y1="-4.5" x2="23.8019" y2="-4.5" transform="matrix(0.529999 -0.847998 -0.847998 -0.529999 76 24)" stroke="white" stroke-width="9" stroke-linecap="round"/>
<line x1="73.799" y1="22.569" x2="63.569" y2="6.20099" stroke="white" stroke-width="9" stroke-linecap="round"/>
</svg>
