<svg width="192" height="124" viewBox="0 0 192 124" fill="none" xmlns="http://www.w3.org/2000/svg">
<rect x="35" width="157" height="124" rx="30" fill="#F92E6D"/>
<rect width="157" height="124" rx="30" fill="#22D5F3"/>
<rect x="19" width="157" height="124" rx="30" fill="white"/>
<path d="M73.958 62.688C73.958 63.9595 74.3519 65.0494 75.1396 65.9576C75.9453 66.8456 76.9121 67.2896 78.04 67.2896H92.9448V84.0914C92.9448 85.3427 93.3387 86.4123 94.1265 87.3003C94.9142 88.2085 95.8721 88.6626 97 88.6626C98.1279 88.6626 99.0858 88.2085 99.8735 87.3003C100.679 86.4123 101.082 85.3427 101.082 84.0914V67.2896H115.987C117.097 67.2896 118.046 66.8456 118.833 65.9576C119.639 65.0494 120.042 63.9595 120.042 62.688C120.042 61.4165 119.639 60.3368 118.833 59.4488C118.046 58.5406 117.097 58.0865 115.987 58.0865H101.082V41.315C101.082 40.0435 100.679 38.9638 99.8735 38.0757C99.0858 37.1675 98.1279 36.7134 97 36.7134C95.8721 36.7134 94.9142 37.1675 94.1265 38.0757C93.3387 38.9638 92.9448 40.0435 92.9448 41.315V58.0865H78.04C76.9121 58.0865 75.9453 58.5406 75.1396 59.4488C74.3519 60.3368 73.958 61.4165 73.958 62.688Z" fill="black"/>
</svg>
